<svg width="216" height="56" viewBox="0 0 216 56" fill="none" xmlns="http://www.w3.org/2000/svg">
<path d="M16.3875 45.4688C14.495 45.4688 12.6797 45.1616 10.9416 44.5472C9.20344 43.9328 7.65953 42.9472 6.30984 41.5903C4.96015 40.2334 3.89327 38.452 3.10921 36.2461C2.32514 34.0401 1.93311 31.3456 1.93311 28.1625C1.93311 25.2744 2.27655 22.6864 2.96343 20.3986C3.6503 18.1108 4.63546 16.1634 5.9189 14.5566C7.20234 12.9497 8.74297 11.7234 10.5408 10.8778C12.3386 10.0322 14.3425 9.60938 16.5525 9.60938C18.9806 9.60938 21.1225 10.0802 22.9782 11.0217C24.8338 11.9633 26.3221 13.2274 27.443 14.8139C28.5639 16.4005 29.2294 18.1731 29.4394 20.1319H21.3037C21.0556 19.0081 20.5005 18.1522 19.6383 17.5641C18.7761 16.976 17.7475 16.6819 16.5525 16.6819C15.1156 16.6819 13.9189 17.1044 12.9624 17.9494C12.0058 18.7944 11.2907 19.9885 10.8169 21.5316C10.3432 23.0747 10.1063 24.8944 10.1063 26.9906H10.3163C10.8107 25.9506 11.5013 25.0563 12.3882 24.3075C13.275 23.5587 14.3021 22.9859 15.4693 22.5891C16.6364 22.1922 17.8632 21.9937 19.1494 21.9937C21.2444 21.9937 23.0933 22.4741 24.6961 23.4347C26.2989 24.3953 27.5549 25.717 28.4639 27.3998C29.373 29.0827 29.8275 31.0075 29.8275 33.1744C29.8275 35.5956 29.26 37.7316 28.125 39.5822C26.99 41.4328 25.415 42.8766 23.4 43.9134C21.385 44.9503 19.0475 45.4688 16.3875 45.4688ZM16.3163 39.0787C17.3781 39.0787 18.3202 38.8311 19.1423 38.3358C19.9645 37.8404 20.6147 37.1662 21.0928 36.3131C21.5709 35.46 21.81 34.4969 21.81 33.4237C21.81 32.3581 21.5737 31.4006 21.1012 30.5513C20.6287 29.7019 19.9833 29.0314 19.1648 28.5399C18.3464 28.0483 17.4063 27.8025 16.3444 27.8025C15.5669 27.8025 14.8458 27.9472 14.1811 28.2366C13.5164 28.526 12.9353 28.927 12.4378 29.4399C11.9403 29.9527 11.5536 30.5492 11.2777 31.2295C11.0018 31.9098 10.8638 32.645 10.8638 33.435C10.8638 34.4894 11.101 35.4431 11.5753 36.2962C12.0497 37.1494 12.701 37.8264 13.5291 38.3273C14.3572 38.8283 15.2863 39.0787 16.3163 39.0787ZM31.9134 54.6075L33.9759 39.555H41.9035L37.321 54.6075H31.9134ZM47.5322 45V39.0637L60.2203 27.8494C61.1847 26.9656 62.0075 26.1558 62.6887 25.4198C63.37 24.6839 63.8908 23.9453 64.2511 23.2041C64.6114 22.4628 64.7915 21.6481 64.7915 20.76C64.7915 19.7906 64.5767 18.9586 64.147 18.2639C63.7173 17.5692 63.132 17.0341 62.3911 16.6585C61.6502 16.2828 60.7972 16.095 59.8322 16.095C58.8484 16.095 57.987 16.2933 57.248 16.6899C56.5089 17.0864 55.9361 17.6572 55.5296 18.4022C55.123 19.1472 54.9197 20.0513 54.9197 21.1144H47.0559C47.0559 18.755 47.5889 16.7169 48.6548 15C49.7208 13.2831 51.2165 11.9555 53.1422 11.017C55.0678 10.0786 57.3072 9.60938 59.8603 9.60938C62.4847 9.60938 64.7669 10.0519 66.7069 10.9369C68.6469 11.8219 70.1511 13.0552 71.2196 14.6367C72.288 16.2183 72.8222 18.0538 72.8222 20.1431C72.8222 21.4681 72.5571 22.7758 72.0267 24.0661C71.4964 25.3564 70.5482 26.795 69.1819 28.3819C67.8156 29.9688 65.8697 31.8619 63.3441 34.0613L59.0166 38.0793V38.325H73.2478V45H47.5322ZM75.7509 39.1631V32.6981L90.1059 10.0781H95.8116V18.8982H92.4928L83.9822 32.3494V32.6306H104.725V39.1631H75.7509ZM92.5903 45V37.1944L92.7741 34.3256V10.0781H100.525V45H92.5903ZM122.026 45.4688C118.946 45.4688 116.315 44.7597 114.13 43.3416C111.946 41.9234 110.271 39.8823 109.107 37.2183C107.942 34.5542 107.36 31.3327 107.36 27.5536C107.36 23.7902 107.943 20.5706 109.109 17.8948C110.275 15.2191 111.95 13.1692 114.133 11.7453C116.316 10.3213 118.947 9.60938 122.025 9.60938C125.104 9.60938 127.739 10.3233 129.931 11.7511C132.124 13.1789 133.799 15.2288 134.958 17.9006C136.117 20.5725 136.696 23.7938 136.696 27.5647C136.696 31.3355 136.118 34.5531 134.961 37.2176C133.804 39.8821 132.133 41.9234 129.949 43.3416C127.764 44.7597 125.123 45.4688 122.026 45.4688ZM122.03 38.6925C123.352 38.6925 124.47 38.2625 125.384 37.4025C126.298 36.5425 126.994 35.2833 127.47 33.6248C127.947 31.9664 128.185 29.9449 128.185 27.5602C128.185 25.163 127.947 23.1303 127.47 21.4622C126.994 19.7941 126.297 18.5241 125.381 17.6522C124.464 16.7803 123.348 16.3444 122.033 16.3444C120.718 16.3444 119.601 16.7813 118.68 17.655C117.76 18.5288 117.062 19.7988 116.585 21.465C116.109 23.1313 115.87 25.163 115.87 27.5602C115.87 29.9449 116.106 31.9664 116.576 33.6248C117.047 35.2833 117.743 36.5425 118.665 37.4025C119.586 38.2625 120.708 38.6925 122.03 38.6925Z" fill="#D0BCFF"/>
<path opacity="0.6" d="M151.744 31.2891L147.525 46.9688H145.791L150.009 31.2891H151.744ZM162.911 31.9043V45H160.925V33.7233H160.837L157.726 35.9956V33.9812L160.59 31.9043H162.911ZM170.17 45.1758C169.154 45.1758 168.288 44.9116 167.571 44.3832C166.853 43.8548 166.305 43.0911 165.924 42.0921C165.543 41.093 165.353 39.8824 165.353 38.4602C165.353 37.0438 165.544 35.8344 165.927 34.8321C166.31 33.8298 166.861 33.062 167.578 32.5286C168.295 31.9952 169.159 31.7285 170.17 31.7285C171.181 31.7285 172.047 31.9954 172.767 32.5291C173.487 33.0628 174.037 33.8307 174.418 34.8326C174.798 35.8346 174.988 37.0441 174.988 38.4611C174.988 39.8782 174.799 41.0873 174.421 42.0886C174.043 43.0899 173.496 43.8548 172.779 44.3832C172.062 44.9116 171.192 45.1758 170.17 45.1758ZM170.17 43.4605C170.775 43.4605 171.288 43.2636 171.709 42.8697C172.13 42.4758 172.451 41.9068 172.673 41.1625C172.894 40.4183 173.004 39.5177 173.004 38.4607C173.004 37.3982 172.894 36.4922 172.673 35.7426C172.451 34.993 172.13 34.4207 171.709 34.0258C171.288 33.6309 170.775 33.4334 170.171 33.4334C169.567 33.4334 169.054 33.6321 168.632 34.0294C168.211 34.4267 167.889 34.999 167.668 35.7462C167.447 36.4934 167.336 37.3982 167.336 38.4607C167.336 39.5177 167.447 40.4183 167.667 41.1625C167.888 41.9068 168.209 42.4758 168.631 42.8697C169.052 43.2636 169.566 43.4605 170.17 43.4605ZM176.598 48.2613L177.372 43.1213H179.458L178.004 48.2613H176.598ZM186.28 45.1758C185.265 45.1758 184.398 44.9116 183.681 44.3832C182.964 43.8548 182.415 43.0911 182.034 42.0921C181.654 41.093 181.463 39.8824 181.463 38.4602C181.463 37.0438 181.655 35.8344 182.038 34.8321C182.421 33.8298 182.971 33.062 183.688 32.5286C184.405 31.9952 185.269 31.7285 186.28 31.7285C187.292 31.7285 188.157 31.9954 188.877 32.5291C189.598 33.0628 190.148 33.8307 190.528 34.8326C190.908 35.8346 191.098 37.0441 191.098 38.4611C191.098 39.8782 190.909 41.0873 190.531 42.0886C190.154 43.0899 189.606 43.8548 188.889 44.3832C188.172 44.9116 187.302 45.1758 186.28 45.1758ZM186.281 43.4605C186.886 43.4605 187.399 43.2636 187.82 42.8697C188.241 42.4758 188.562 41.9068 188.783 41.1625C189.004 40.4183 189.115 39.5177 189.115 38.4607C189.115 37.3982 189.004 36.4922 188.783 35.7426C188.562 34.993 188.241 34.4207 187.819 34.0258C187.398 33.6309 186.885 33.4334 186.281 33.4334C185.677 33.4334 185.164 33.6321 184.742 34.0294C184.321 34.4267 184 34.999 183.778 35.7462C183.557 36.4934 183.447 37.3982 183.447 38.4607C183.447 39.5177 183.557 40.4183 183.778 41.1625C183.998 41.9068 184.319 42.4758 184.741 42.8697C185.163 43.2636 185.676 43.4605 186.281 43.4605ZM197.9 45.1758C196.884 45.1758 196.017 44.9116 195.3 44.3832C194.583 43.8548 194.034 43.0911 193.653 42.0921C193.273 41.093 193.082 39.8824 193.082 38.4602C193.082 37.0438 193.274 35.8344 193.657 34.8321C194.04 33.8298 194.59 33.062 195.307 32.5286C196.024 31.9952 196.888 31.7285 197.9 31.7285C198.911 31.7285 199.776 31.9954 200.497 32.5291C201.217 33.0628 201.767 33.8307 202.147 34.8326C202.527 35.8346 202.717 37.0441 202.717 38.4611C202.717 39.8782 202.528 41.0873 202.151 42.0886C201.773 43.0899 201.225 43.8548 200.508 44.3832C199.791 44.9116 198.921 45.1758 197.9 45.1758ZM197.9 43.4605C198.505 43.4605 199.018 43.2636 199.439 42.8697C199.86 42.4758 200.181 41.9068 200.402 41.1625C200.623 40.4183 200.734 39.5177 200.734 38.4607C200.734 37.3982 200.623 36.4922 200.402 35.7426C200.181 34.993 199.86 34.4207 199.438 34.0258C199.017 33.6309 198.504 33.4334 197.9 33.4334C197.296 33.4334 196.783 33.6321 196.362 34.0294C195.94 34.4267 195.619 34.999 195.397 35.7462C195.176 36.4934 195.066 37.3982 195.066 38.4607C195.066 39.5177 195.176 40.4183 195.397 41.1625C195.617 41.9068 195.939 42.4758 196.36 42.8697C196.782 43.2636 197.295 43.4605 197.9 43.4605ZM209.519 45.1758C208.503 45.1758 207.637 44.9116 206.919 44.3832C206.202 43.8548 205.653 43.0911 205.273 42.0921C204.892 41.093 204.701 39.8824 204.701 38.4602C204.701 37.0438 204.893 35.8344 205.276 34.8321C205.659 33.8298 206.209 33.062 206.926 32.5286C207.643 31.9952 208.507 31.7285 209.519 31.7285C210.53 31.7285 211.396 31.9954 212.116 32.5291C212.836 33.0628 213.386 33.8307 213.766 34.8326C214.146 35.8346 214.336 37.0441 214.336 38.4611C214.336 39.8782 214.148 41.0873 213.77 42.0886C213.392 43.0899 212.845 43.8548 212.127 44.3832C211.41 44.9116 210.541 45.1758 209.519 45.1758ZM209.519 43.4605C210.124 43.4605 210.637 43.2636 211.058 42.8697C211.479 42.4758 211.8 41.9068 212.021 41.1625C212.242 40.4183 212.353 39.5177 212.353 38.4607C212.353 37.3982 212.242 36.4922 212.021 35.7426C211.8 34.993 211.479 34.4207 211.058 34.0258C210.636 33.6309 210.124 33.4334 209.519 33.4334C208.915 33.4334 208.402 33.6321 207.981 34.0294C207.559 34.4267 207.238 34.999 207.017 35.7462C206.795 36.4934 206.685 37.3982 206.685 38.4607C206.685 39.5177 206.795 40.4183 207.016 41.1625C207.236 41.9068 207.558 42.4758 207.979 42.8697C208.401 43.2636 208.914 43.4605 209.519 43.4605Z" fill="#CBC3D7"/>
</svg>
