<svg width="126" height="23" viewBox="0 0 126 23" fill="none" xmlns="http://www.w3.org/2000/svg">
<g filter="url(#filter0_d_1_36)">
<path d="M4 11.1667C4 9.70833 4.34722 8.40972 5.04167 7.27083C5.73611 6.13194 6.5 5.17361 7.33333 4.39583C8.16667 3.61806 8.93056 3.02431 9.625 2.61458C10.3194 2.20486 10.6667 2 10.6667 2V4.75C10.6667 5.26389 10.8403 5.67014 11.1875 5.96875C11.5347 6.26736 11.9236 6.41667 12.3542 6.41667C12.5903 6.41667 12.816 6.36806 13.0312 6.27083C13.2465 6.17361 13.4444 6.01389 13.625 5.79167L14 5.33333C15 5.91667 15.8056 6.72569 16.4167 7.76042C17.0278 8.79514 17.3333 9.93056 17.3333 11.1667C17.3333 12.3889 17.0347 13.5035 16.4375 14.5104C15.8403 15.5174 15.0556 16.3125 14.0833 16.8958C14.3194 16.5625 14.5035 16.1979 14.6354 15.8021C14.7674 15.4062 14.8333 14.9861 14.8333 14.5417C14.8333 13.9861 14.7292 13.4618 14.5208 12.9688C14.3125 12.4757 14.0139 12.0347 13.625 11.6458L10.6667 8.75L7.72917 11.6458C7.32639 12.0486 7.02083 12.4931 6.8125 12.9792C6.60417 13.4653 6.5 13.9861 6.5 14.5417C6.5 14.9861 6.56597 15.4062 6.69792 15.8021C6.82986 16.1979 7.01389 16.5625 7.25 16.8958C6.27778 16.3125 5.49306 15.5174 4.89583 14.5104C4.29861 13.5035 4 12.3889 4 11.1667ZM10.6667 11.0833L12.4375 12.8125C12.6736 13.0486 12.8542 13.3125 12.9792 13.6042C13.1042 13.8958 13.1667 14.2083 13.1667 14.5417C13.1667 15.2222 12.9236 15.8021 12.4375 16.2812C11.9514 16.7604 11.3611 17 10.6667 17C9.97222 17 9.38194 16.7604 8.89583 16.2812C8.40972 15.8021 8.16667 15.2222 8.16667 14.5417C8.16667 14.2222 8.22917 13.9132 8.35417 13.6146C8.47917 13.316 8.65972 13.0486 8.89583 12.8125L10.6667 11.0833Z" fill="#FFB690"/>
</g>
<path d="M29.937 13.6172C29.1635 13.6172 28.4711 13.4413 27.8597 13.0894C27.2482 12.7376 26.7661 12.2278 26.4131 11.56C26.0601 10.8922 25.8836 10.0857 25.8836 9.14062C25.8836 8.18953 26.0617 7.37955 26.4178 6.71068C26.774 6.04181 27.2583 5.53154 27.8707 5.17986C28.4832 4.82818 29.172 4.65234 29.937 4.65234C30.4333 4.65234 30.8956 4.72154 31.3241 4.85994C31.7525 4.99834 32.1325 5.20053 32.464 5.46651C32.7955 5.73249 33.0673 6.05753 33.2794 6.44163C33.4916 6.82573 33.6304 7.26349 33.6958 7.7549H31.8864C31.845 7.5153 31.7692 7.30225 31.6588 7.11577C31.5485 6.92929 31.4098 6.77058 31.2426 6.63964C31.0753 6.50871 30.8846 6.40945 30.6703 6.34188C30.4561 6.2743 30.2243 6.24051 29.975 6.24051C29.5212 6.24051 29.1229 6.35381 28.7801 6.58041C28.4374 6.80701 28.1714 7.13601 27.9823 7.56741C27.7931 7.99881 27.6986 8.52321 27.6986 9.14062C27.6986 9.7689 27.7946 10.2982 27.9868 10.7286C28.1789 11.1589 28.4453 11.4832 28.786 11.7015C29.1266 11.9199 29.5209 12.029 29.9687 12.029C30.218 12.029 30.4492 11.9948 30.6624 11.9263C30.8756 11.8578 31.0669 11.7586 31.2362 11.6285C31.4056 11.4985 31.5464 11.3398 31.6588 11.1524C31.7713 10.965 31.8492 10.7524 31.8927 10.5146H33.7022C33.6533 10.9199 33.5328 11.3078 33.3407 11.6783C33.1485 12.0488 32.8915 12.3802 32.5695 12.6724C32.2475 12.9646 31.866 13.1951 31.4249 13.3639C30.9838 13.5328 30.4878 13.6172 29.937 13.6172ZM34.7679 13.5L37.7543 4.76953H40.0939L43.1561 13.5H41.1678L39.7687 9.28859C39.5985 8.74466 39.4271 8.14906 39.2546 7.50179C39.082 6.85451 38.8999 6.14923 38.7083 5.38594H39.0964C38.9108 6.15282 38.7372 6.86169 38.5755 7.51257C38.4138 8.16344 38.2527 8.75544 38.092 9.28859L36.7425 13.5H34.7679ZM36.6337 11.4739V10.0709H41.2902V11.4739H36.6337ZM44.83 13.5V4.76953H46.6205V12.0157H50.385V13.5H44.83ZM55.7118 13.6172C54.9404 13.6172 54.2469 13.4413 53.6313 13.0894C53.0157 12.7376 52.5293 12.2278 52.1723 11.56C51.8153 10.8922 51.6368 10.0857 51.6368 9.14062C51.6368 8.18953 51.8153 7.37955 52.1723 6.71068C52.5293 6.04181 53.0157 5.53154 53.6313 5.17986C54.2469 4.82818 54.9404 4.65234 55.7118 4.65234C56.4833 4.65234 57.1758 4.82818 57.7895 5.17986C58.4031 5.53154 58.8886 6.04181 59.2458 6.71068C59.603 7.37955 59.7815 8.18953 59.7815 9.14062C59.7815 10.0878 59.603 10.8953 59.2458 11.5631C58.8886 12.2309 58.4031 12.7402 57.7895 13.091C57.1758 13.4418 56.4833 13.6172 55.7118 13.6172ZM55.7118 12.029C56.1639 12.029 56.5587 11.9183 56.8964 11.6968C57.234 11.4753 57.4968 11.1494 57.6847 10.7191C57.8726 10.2887 57.9666 9.76257 57.9666 9.14062C57.9666 8.51298 57.8726 7.98345 57.6847 7.55205C57.4968 7.12065 57.234 6.79421 56.8964 6.57273C56.5587 6.35125 56.1639 6.24051 55.7118 6.24051C55.2601 6.24051 54.865 6.3517 54.5265 6.57408C54.1879 6.79646 53.9241 7.12335 53.7352 7.55475C53.5462 7.98615 53.4517 8.51477 53.4517 9.14062C53.4517 9.76257 53.5462 10.2883 53.7352 10.7177C53.9241 11.1472 54.1879 11.4731 54.5265 11.6955C54.865 11.9178 55.2601 12.029 55.7118 12.029ZM61.7214 13.5V4.76953H65.1274C65.7902 4.76953 66.354 4.8868 66.8188 5.12133C67.2835 5.35586 67.6382 5.68627 67.8827 6.11256C68.1273 6.53885 68.2495 7.03813 68.2495 7.6104C68.2495 8.18689 68.1257 8.68279 67.878 9.0981C67.6303 9.51342 67.2708 9.8318 66.7996 10.0532C66.3283 10.2747 65.757 10.3854 65.0858 10.3854H62.7792V8.93635H64.8021C65.166 8.93635 65.4659 8.88637 65.702 8.78642C65.938 8.68646 66.1142 8.5383 66.2304 8.34193C66.3467 8.14557 66.4048 7.90173 66.4048 7.6104C66.4048 7.31548 66.3467 7.06699 66.2304 6.86492C66.1142 6.66286 65.9376 6.50899 65.7006 6.40333C65.4637 6.29767 65.1624 6.24484 64.7967 6.24484H63.5119V13.5H61.7214ZM66.5788 13.5L64.4568 9.52722H66.3942L68.5641 13.5H66.5788ZM71.9927 4.76953V13.5H70.2023V4.76953H71.9927ZM74.1714 13.5V4.76953H80.017V6.25386H75.9619V8.36108H79.7078V9.8201H75.9619V12.0157H80.0286V13.5H74.1714ZM85.2636 13.627C84.5651 13.627 83.957 13.5197 83.4392 13.3049C82.9215 13.0902 82.518 12.7723 82.2289 12.3511C81.9398 11.93 81.786 11.4099 81.7678 10.7908H83.5084C83.5312 11.0852 83.6188 11.3309 83.7712 11.528C83.9236 11.7251 84.127 11.8727 84.3815 11.971C84.6361 12.0692 84.9238 12.1183 85.2446 12.1183C85.5632 12.1183 85.8412 12.0718 86.0787 11.9788C86.3161 11.8857 86.5008 11.7552 86.6327 11.5873C86.7647 11.4194 86.8306 11.2254 86.8306 11.0054C86.8306 10.8043 86.7715 10.6365 86.6534 10.5018C86.5353 10.3672 86.3644 10.2517 86.1406 10.1552C85.9169 10.0588 85.6456 9.97294 85.3268 9.89755L84.367 9.65885C83.628 9.47861 83.049 9.1961 82.6299 8.81129C82.2108 8.42648 82.0012 7.91654 82.0012 7.28146C82.0012 6.75552 82.1435 6.29532 82.4281 5.90087C82.7127 5.50641 83.1022 5.19971 83.5964 4.98076C84.0907 4.76182 84.6539 4.65234 85.286 4.65234C85.9319 4.65234 86.4951 4.76287 86.9756 4.98393C87.456 5.20498 87.8305 5.51141 88.099 5.90321C88.3675 6.29501 88.5064 6.74642 88.5157 7.25744H86.7867C86.7528 6.9076 86.6029 6.63651 86.3371 6.44417C86.0713 6.25183 85.7155 6.15566 85.2698 6.15566C84.9665 6.15566 84.7076 6.19925 84.4929 6.28644C84.2783 6.37362 84.115 6.4936 84.0031 6.64637C83.8911 6.79914 83.8351 6.97322 83.8351 7.1686C83.8351 7.38258 83.9003 7.56019 84.0307 7.70144C84.1611 7.84269 84.333 7.95768 84.5463 8.04643C84.7597 8.13518 84.9887 8.20885 85.2334 8.26745L86.021 8.46022C86.3883 8.54381 86.7304 8.65612 87.0473 8.79714C87.3643 8.93815 87.6417 9.11109 87.8794 9.31593C88.1172 9.52078 88.3022 9.76338 88.4345 10.0437C88.5668 10.3241 88.6329 10.6473 88.6329 11.0135C88.6329 11.5428 88.4994 12.0036 88.2323 12.3959C87.9653 12.7882 87.5807 13.0915 87.0785 13.3057C86.5763 13.5199 85.9713 13.627 85.2636 13.627Z" fill="#FFB690"/>
<defs>
<filter id="filter0_d_1_36" x="0" y="0" width="21.3333" height="23" filterUnits="userSpaceOnUse" color-interpolation-filters="sRGB">
<feFlood flood-opacity="0" result="BackgroundImageFix"/>
<feColorMatrix in="SourceAlpha" type="matrix" values="0 0 0 0 0 0 0 0 0 0 0 0 0 0 0 0 0 0 127 0" result="hardAlpha"/>
<feOffset dy="2"/>
<feGaussianBlur stdDeviation="2"/>
<feComposite in2="hardAlpha" operator="out"/>
<feColorMatrix type="matrix" values="0 0 0 0 0 0 0 0 0 0 0 0 0 0 0 0 0 0 0.3 0"/>
<feBlend mode="normal" in2="BackgroundImageFix" result="effect1_dropShadow_1_36"/>
<feBlend mode="normal" in="SourceGraphic" in2="effect1_dropShadow_1_36" result="shape"/>
</filter>
</defs>
</svg>
