<svg width="122" height="25" viewBox="0 0 122 25" fill="none" xmlns="http://www.w3.org/2000/svg">
<path d="M1.08562 18.0816V14.8491L8.26311 3.53906H11.1159V7.94908H9.45656L5.20127 14.6747V14.8153H15.5728V18.0816H1.08562ZM9.50531 21V17.0972L9.59719 15.6628V3.53906H13.4728V21H9.50531ZM24.2447 21.2344C22.8928 21.2344 21.69 21.018 20.6363 20.5852C19.5825 20.1523 18.7547 19.5628 18.1528 18.8166C17.5509 18.0703 17.25 17.2275 17.25 16.2881C17.25 15.5656 17.4222 14.9018 17.7666 14.2966C18.1109 13.6915 18.578 13.1869 19.1679 12.7828C19.7577 12.3788 20.4184 12.1181 21.15 12.0009V11.8894C20.1916 11.7003 19.4074 11.247 18.7976 10.5293C18.1877 9.81164 17.8828 8.97406 17.8828 8.01656C17.8828 7.10813 18.1578 6.29984 18.7078 5.59172C19.2578 4.88359 20.0123 4.32539 20.9714 3.91711C21.9305 3.50883 23.0216 3.30469 24.2447 3.30469C25.47 3.30469 26.5637 3.50883 27.5257 3.91711C28.4878 4.32539 29.2442 4.88508 29.7952 5.59617C30.3461 6.30727 30.6216 7.11406 30.6216 8.01656C30.6216 8.98 30.3132 9.81906 29.6965 10.5338C29.0798 11.2484 28.301 11.7003 27.36 11.8894V12.0009C28.0819 12.1181 28.7378 12.3788 29.3276 12.7828C29.9174 13.1869 30.387 13.6915 30.7362 14.2966C31.0854 14.9018 31.26 15.5656 31.26 16.2881C31.26 17.2275 30.9581 18.0703 30.3544 18.8166C29.7506 19.5628 28.9204 20.1523 27.8637 20.5852C26.807 21.018 25.6006 21.2344 24.2447 21.2344ZM24.2447 18.2944C24.7747 18.2944 25.2393 18.1941 25.6385 17.9937C26.0377 17.7932 26.3501 17.5149 26.5755 17.1588C26.801 16.8027 26.9137 16.3962 26.9137 15.9394C26.9137 15.4809 26.7987 15.0749 26.5685 14.7213C26.3384 14.3677 26.0227 14.0884 25.6216 13.8834C25.2205 13.6784 24.7616 13.5759 24.2447 13.5759C23.7359 13.5759 23.281 13.677 22.8799 13.879C22.4788 14.081 22.1632 14.3588 21.9331 14.7124C21.7029 15.066 21.5878 15.475 21.5878 15.9394C21.5878 16.3962 21.7001 16.8012 21.9246 17.1544C22.1492 17.5075 22.462 17.7858 22.8631 17.9892C23.2642 18.1926 23.7247 18.2944 24.2447 18.2944ZM24.2447 10.635C24.6956 10.635 25.0956 10.5431 25.4445 10.3594C25.7934 10.1756 26.0694 9.92047 26.2725 9.59391C26.4756 9.26734 26.5772 8.89719 26.5772 8.48344C26.5772 8.06376 26.477 7.69548 26.2767 7.3786C26.0764 7.06173 25.8013 6.81384 25.4515 6.63494C25.1016 6.45603 24.6994 6.36658 24.2447 6.36658C23.7941 6.36658 23.3938 6.45603 23.044 6.63494C22.6942 6.81384 22.4206 7.06173 22.2232 7.3786C22.0259 7.69548 21.9272 8.06376 21.9272 8.48344C21.9272 8.89719 22.0263 9.26586 22.2246 9.58945C22.4229 9.91304 22.6974 10.1682 23.0482 10.3549C23.399 10.5416 23.7978 10.635 24.2447 10.635Z" fill="#D4E4FA"/>
<path opacity="0.6" d="M36.7689 21V12.2695H39.5154L40.9285 16.2775C40.9877 16.4633 41.0554 16.7052 41.1314 17.0029C41.2075 17.3007 41.2848 17.6214 41.3634 17.9651C41.442 18.3087 41.5155 18.6424 41.5841 18.9662C41.6526 19.2899 41.7091 19.5718 41.7535 19.8117H41.403C41.4492 19.5772 41.5061 19.2989 41.5736 18.9769C41.641 18.655 41.714 18.3217 41.7926 17.9772C41.8712 17.6327 41.9485 17.3102 42.0244 17.0097C42.1003 16.7092 42.1678 16.4651 42.2271 16.2775L43.6204 12.2695H46.3727V21H44.5777V16.8839C44.5777 16.6936 44.5808 16.4564 44.587 16.1721C44.5931 15.8878 44.6007 15.5808 44.6098 15.2509C44.6188 14.9211 44.6273 14.5884 44.6352 14.2528C44.6432 13.9173 44.6481 13.6022 44.6499 13.3076H44.7658C44.6901 13.632 44.6069 13.9665 44.5161 14.3112C44.4254 14.6559 44.3345 14.9908 44.2434 15.316C44.1524 15.6411 44.0657 15.9391 43.9833 16.2098C43.901 16.4806 43.8304 16.7053 43.7715 16.8839L42.3266 21H40.8187L39.3508 16.8839C39.2919 16.7071 39.2217 16.4846 39.1401 16.2166C39.0585 15.9485 38.9711 15.6528 38.8779 15.3295C38.7847 15.0061 38.6918 14.6712 38.5991 14.3247C38.5064 13.9782 38.4176 13.6392 38.3326 13.3076H38.4729C38.4764 13.5896 38.4822 13.8966 38.4902 14.2286C38.4982 14.5605 38.5062 14.8928 38.5143 15.2253C38.5225 15.5579 38.5301 15.8685 38.5371 16.1573C38.5442 16.446 38.5477 16.6882 38.5477 16.8839V21H36.7689ZM50.339 12.2695V21H48.5486V12.2695H50.339ZM52.5177 21V12.2695H54.5137L57.2703 16.6891C57.4104 16.9159 57.5532 17.1615 57.6987 17.4261C57.8442 17.6906 57.9919 17.985 58.142 18.3091C58.2921 18.6333 58.4424 18.9987 58.593 19.4051H58.4094C58.3827 19.0798 58.3579 18.7342 58.3349 18.3685C58.3118 18.0028 58.2931 17.6515 58.2787 17.3146C58.2642 16.9776 58.257 16.693 58.257 16.4605V12.2695H60.0854V21H58.084L55.5813 16.9932C55.3967 16.691 55.2259 16.3988 55.0688 16.1167C54.9118 15.8346 54.7485 15.5218 54.5789 15.1784C54.4093 14.8349 54.207 14.4255 53.9718 13.9502H54.1991C54.2249 14.3711 54.2494 14.7757 54.2724 15.164C54.2954 15.5523 54.3139 15.9032 54.3279 16.2167C54.3418 16.5302 54.3488 16.7873 54.3488 16.9878V21H52.5177Z" fill="#CBC3D7"/>
</svg>
