<svg width="35" height="40" viewBox="0 0 35 40" fill="none" xmlns="http://www.w3.org/2000/svg">
<g filter="url(#filter0_d_1_26)">
<path d="M10 2C11.8889 2 13.3611 2.83889 14.4167 4.51667C15.4722 6.19444 16 8.02222 16 10C16 10.9111 15.9056 11.7778 15.7167 12.6C15.5278 13.4222 15.3111 14.1556 15.0667 14.8L5.56667 16.7C5.23333 16.0556 4.88889 15.1611 4.53333 14.0167C4.17778 12.8722 4 11.5333 4 10C4 7.71111 4.56667 5.80556 5.7 4.28333C6.83333 2.76111 8.26667 2 10 2ZM11.8333 24.6667C10.2556 24.6667 9.02778 24.1167 8.15 23.0167C7.27222 21.9167 6.77778 20.6444 6.66667 19.2L15.2667 17.4667C15.4444 17.8444 15.6111 18.2722 15.7667 18.75C15.9222 19.2278 16 19.7222 16 20.2333C16 21.5 15.6056 22.5556 14.8167 23.4C14.0278 24.2444 13.0333 24.6667 11.8333 24.6667ZM24.6667 8.66667C26.4 8.66667 27.8333 9.42778 28.9667 10.95C30.1 12.4722 30.6667 14.3778 30.6667 16.6667C30.6667 18.2 30.4889 19.5389 30.1333 20.6833C29.7778 21.8278 29.4333 22.7222 29.1 23.3667L19.6 21.4667C19.3556 20.8222 19.1389 20.0889 18.95 19.2667C18.7611 18.4444 18.6667 17.5778 18.6667 16.6667C18.6667 14.6889 19.1944 12.8611 20.25 11.1833C21.3056 9.50556 22.7778 8.66667 24.6667 8.66667ZM22.8333 31.3333C21.6333 31.3333 20.6389 30.9111 19.85 30.0667C19.0611 29.2222 18.6667 28.1667 18.6667 26.9C18.6667 26.3889 18.7444 25.8944 18.9 25.4167C19.0556 24.9389 19.2222 24.5111 19.4 24.1333L27.9667 25.8667C27.8556 27.3111 27.3667 28.5833 26.5 29.6833C25.6333 30.7833 24.4111 31.3333 22.8333 31.3333Z" fill="#D0BCFF"/>
</g>
<defs>
<filter id="filter0_d_1_26" x="0" y="0" width="34.6667" height="37.3333" filterUnits="userSpaceOnUse" color-interpolation-filters="sRGB">
<feFlood flood-opacity="0" result="BackgroundImageFix"/>
<feColorMatrix in="SourceAlpha" type="matrix" values="0 0 0 0 0 0 0 0 0 0 0 0 0 0 0 0 0 0 127 0" result="hardAlpha"/>
<feOffset dy="2"/>
<feGaussianBlur stdDeviation="2"/>
<feComposite in2="hardAlpha" operator="out"/>
<feColorMatrix type="matrix" values="0 0 0 0 0 0 0 0 0 0 0 0 0 0 0 0 0 0 0.3 0"/>
<feBlend mode="normal" in2="BackgroundImageFix" result="effect1_dropShadow_1_26"/>
<feBlend mode="normal" in="SourceGraphic" in2="effect1_dropShadow_1_26" result="shape"/>
</filter>
</defs>
</svg>
