<svg width="29" height="30" viewBox="0 0 29 30" fill="none" xmlns="http://www.w3.org/2000/svg">
<g filter="url(#filter0_d_1_9)">
<path d="M11.3 24L10.9 20.8C10.6833 20.7167 10.4792 20.6167 10.2875 20.5C10.0958 20.3833 9.90833 20.2583 9.725 20.125L6.75 21.375L4 16.625L6.575 14.675C6.55833 14.5583 6.55 14.4458 6.55 14.3375C6.55 14.2292 6.55 14.1167 6.55 14C6.55 13.8833 6.55 13.7708 6.55 13.6625C6.55 13.5542 6.55833 13.4417 6.575 13.325L4 11.375L6.75 6.625L9.725 7.875C9.90833 7.74167 10.1 7.61667 10.3 7.5C10.5 7.38333 10.7 7.28333 10.9 7.2L11.3 4H16.8L17.2 7.2C17.4167 7.28333 17.6208 7.38333 17.8125 7.5C18.0042 7.61667 18.1917 7.74167 18.375 7.875L21.35 6.625L24.1 11.375L21.525 13.325C21.5417 13.4417 21.55 13.5542 21.55 13.6625C21.55 13.7708 21.55 13.8833 21.55 14C21.55 14.1167 21.55 14.2292 21.55 14.3375C21.55 14.4458 21.5333 14.5583 21.5 14.675L24.075 16.625L21.325 21.375L18.375 20.125C18.1917 20.2583 18 20.3833 17.8 20.5C17.6 20.6167 17.4 20.7167 17.2 20.8L16.8 24H11.3ZM13.05 22H15.025L15.375 19.35C15.8917 19.2167 16.3708 19.0208 16.8125 18.7625C17.2542 18.5042 17.6583 18.1917 18.025 17.825L20.5 18.85L21.475 17.15L19.325 15.525C19.4083 15.2917 19.4667 15.0458 19.5 14.7875C19.5333 14.5292 19.55 14.2667 19.55 14C19.55 13.7333 19.5333 13.4708 19.5 13.2125C19.4667 12.9542 19.4083 12.7083 19.325 12.475L21.475 10.85L20.5 9.15L18.025 10.2C17.6583 9.81667 17.2542 9.49583 16.8125 9.2375C16.3708 8.97917 15.8917 8.78333 15.375 8.65L15.05 6H13.075L12.725 8.65C12.2083 8.78333 11.7292 8.97917 11.2875 9.2375C10.8458 9.49583 10.4417 9.80833 10.075 10.175L7.6 9.15L6.625 10.85L8.775 12.45C8.69167 12.7 8.63333 12.95 8.6 13.2C8.56667 13.45 8.55 13.7167 8.55 14C8.55 14.2667 8.56667 14.525 8.6 14.775C8.63333 15.025 8.69167 15.275 8.775 15.525L6.625 17.15L7.6 18.85L10.075 17.8C10.4417 18.1833 10.8458 18.5042 11.2875 18.7625C11.7292 19.0208 12.2083 19.2167 12.725 19.35L13.05 22ZM14.1 17.5C15.0667 17.5 15.8917 17.1583 16.575 16.475C17.2583 15.7917 17.6 14.9667 17.6 14C17.6 13.0333 17.2583 12.2083 16.575 11.525C15.8917 10.8417 15.0667 10.5 14.1 10.5C13.1167 10.5 12.2875 10.8417 11.6125 11.525C10.9375 12.2083 10.6 13.0333 10.6 14C10.6 14.9667 10.9375 15.7917 11.6125 16.475C12.2875 17.1583 13.1167 17.5 14.1 17.5Z" fill="#CBC3D7"/>
</g>
<defs>
<filter id="filter0_d_1_9" x="0" y="2" width="28.1" height="28" filterUnits="userSpaceOnUse" color-interpolation-filters="sRGB">
<feFlood flood-opacity="0" result="BackgroundImageFix"/>
<feColorMatrix in="SourceAlpha" type="matrix" values="0 0 0 0 0 0 0 0 0 0 0 0 0 0 0 0 0 0 127 0" result="hardAlpha"/>
<feOffset dy="2"/>
<feGaussianBlur stdDeviation="2"/>
<feComposite in2="hardAlpha" operator="out"/>
<feColorMatrix type="matrix" values="0 0 0 0 0 0 0 0 0 0 0 0 0 0 0 0 0 0 0.3 0"/>
<feBlend mode="normal" in2="BackgroundImageFix" result="effect1_dropShadow_1_9"/>
<feBlend mode="normal" in="SourceGraphic" in2="effect1_dropShadow_1_9" result="shape"/>
</filter>
</defs>
</svg>
