<svg width="28" height="28" viewBox="0 0 28 28" fill="none" xmlns="http://www.w3.org/2000/svg">
<g filter="url(#filter0_d_1_97)">
<path d="M15.3 21.8L13.9 20.4L17.45 16.85L8.95 8.35L5.4 11.9L4 10.5L5.4 9.05L4 7.65L6.1 5.55L4.7 4.1L6.1 2.7L7.55 4.1L9.65 2L11.05 3.4L12.5 2L13.9 3.4L10.35 6.95L18.85 15.45L22.4 11.9L23.8 13.3L22.4 14.75L23.8 16.15L21.7 18.25L23.1 19.7L21.7 21.1L20.25 19.7L18.15 21.8L16.75 20.4L15.3 21.8Z" fill="#CBC3D7"/>
</g>
<defs>
<filter id="filter0_d_1_97" x="0" y="0" width="27.8" height="27.8" filterUnits="userSpaceOnUse" color-interpolation-filters="sRGB">
<feFlood flood-opacity="0" result="BackgroundImageFix"/>
<feColorMatrix in="SourceAlpha" type="matrix" values="0 0 0 0 0 0 0 0 0 0 0 0 0 0 0 0 0 0 127 0" result="hardAlpha"/>
<feOffset dy="2"/>
<feGaussianBlur stdDeviation="2"/>
<feComposite in2="hardAlpha" operator="out"/>
<feColorMatrix type="matrix" values="0 0 0 0 0 0 0 0 0 0 0 0 0 0 0 0 0 0 0.3 0"/>
<feBlend mode="normal" in2="BackgroundImageFix" result="effect1_dropShadow_1_97"/>
<feBlend mode="normal" in="SourceGraphic" in2="effect1_dropShadow_1_97" result="shape"/>
</filter>
</defs>
</svg>
