<svg width="122" height="25" viewBox="0 0 122 25" fill="none" xmlns="http://www.w3.org/2000/svg">
<path d="M7.96126 21.2344C6.60938 21.2344 5.40657 21.018 4.35281 20.5852C3.29906 20.1523 2.47125 19.5628 1.86937 18.8166C1.26749 18.0703 0.966557 17.2275 0.966557 16.2881C0.966557 15.5656 1.13874 14.9018 1.48312 14.2966C1.8275 13.6915 2.29461 13.1869 2.88445 12.7828C3.4743 12.3788 4.135 12.1181 4.86656 12.0009V11.8894C3.90812 11.7003 3.12398 11.247 2.51414 10.5293C1.90429 9.81164 1.59937 8.97406 1.59937 8.01656C1.59937 7.10813 1.87437 6.29984 2.42437 5.59172C2.97437 4.88359 3.7289 4.32539 4.68797 3.91711C5.64703 3.50883 6.73813 3.30469 7.96126 3.30469C9.18657 3.30469 10.2802 3.50883 11.2423 3.91711C12.2043 4.32539 12.9608 4.88508 13.5117 5.59617C14.0627 6.30727 14.3381 7.11406 14.3381 8.01656C14.3381 8.98 14.0298 9.81906 13.4131 10.5338C12.7963 11.2484 12.0175 11.7003 11.0766 11.8894V12.0009C11.7985 12.1181 12.4543 12.3788 13.0442 12.7828C13.634 13.1869 14.1035 13.6915 14.4528 14.2966C14.802 14.9018 14.9766 15.5656 14.9766 16.2881C14.9766 17.2275 14.6747 18.0703 14.071 18.8166C13.4672 19.5628 12.637 20.1523 11.5802 20.5852C10.5235 21.018 9.3172 21.2344 7.96126 21.2344ZM7.96126 18.2944C8.49125 18.2944 8.95586 18.1941 9.35508 17.9937C9.75429 17.7932 10.0666 17.5149 10.2921 17.1588C10.5176 16.8027 10.6303 16.3962 10.6303 15.9394C10.6303 15.4809 10.5152 15.0749 10.2851 14.7213C10.0549 14.3677 9.73929 14.0884 9.3382 13.8834C8.93711 13.6784 8.47813 13.5759 7.96126 13.5759C7.45251 13.5759 6.99759 13.677 6.5965 13.879C6.19541 14.081 5.87978 14.3588 5.64963 14.7124C5.41947 15.066 5.3044 15.475 5.3044 15.9394C5.3044 16.3962 5.41666 16.8012 5.64119 17.1544C5.86572 17.5075 6.17853 17.7858 6.57962 17.9892C6.98072 18.1926 7.44126 18.2944 7.96126 18.2944ZM7.96126 10.635C8.41219 10.635 8.81211 10.5431 9.16102 10.3594C9.50992 10.1756 9.78594 9.92047 9.98906 9.59391C10.1922 9.26734 10.2937 8.89719 10.2937 8.48344C10.2937 8.06376 10.1936 7.69548 9.99328 7.3786C9.79297 7.06173 9.51789 6.81384 9.16805 6.63494C8.81821 6.45603 8.41594 6.36658 7.96126 6.36658C7.51063 6.36658 7.1104 6.45603 6.76056 6.63494C6.41072 6.81384 6.13713 7.06173 5.93978 7.3786C5.74244 7.69548 5.64377 8.06376 5.64377 8.48344C5.64377 8.89719 5.74291 9.26586 5.94119 9.58945C6.13947 9.91304 6.414 10.1682 6.76478 10.3549C7.11556 10.5416 7.51438 10.635 7.96126 10.635ZM16.7831 18.0816V14.8491L23.9606 3.53906H26.8134V7.94908H25.1541L20.8988 14.6747V14.8153H31.2703V18.0816H16.7831ZM25.2028 21V17.0972L25.2947 15.6628V3.53906H29.1703V21H25.2028ZM33.2869 21V18.0319L39.6309 12.4247C40.1131 11.9828 40.5245 11.5779 40.8652 11.2099C41.2058 10.842 41.4662 10.4727 41.6463 10.102C41.8265 9.73141 41.9166 9.32407 41.9166 8.88001C41.9166 8.39532 41.8091 7.97931 41.5943 7.63197C41.3794 7.28462 41.0868 7.01705 40.7163 6.82923C40.3459 6.64142 39.9194 6.54752 39.4369 6.54752C38.945 6.54752 38.5143 6.64666 38.1448 6.84494C37.7752 7.04322 37.4888 7.32861 37.2856 7.70111C37.0823 8.0736 36.9806 8.52563 36.9806 9.05719H33.0487C33.0487 7.87751 33.3152 6.85844 33.8482 6C34.3812 5.14156 35.1291 4.47774 36.0919 4.00852C37.0547 3.5393 38.1744 3.30469 39.4509 3.30469C40.7631 3.30469 41.9042 3.52594 42.8742 3.96844C43.8442 4.41094 44.5963 5.02758 45.1306 5.81836C45.6648 6.60914 45.9319 7.52688 45.9319 8.57157C45.9319 9.23407 45.7993 9.8879 45.5342 10.5331C45.269 11.1782 44.7949 11.8975 44.1117 12.6909C43.4286 13.4844 42.4556 14.4309 41.1928 15.5306L39.0291 17.5397V17.6625H46.1447V21H33.2869Z" fill="#D4E4FA"/>
<path opacity="0.6" d="M53.1607 19.026V17.3967C53.3388 17.0727 53.5144 16.7735 53.6874 16.4992C53.8604 16.225 54.0499 15.9508 54.2559 15.6766C54.4618 15.4025 54.6985 15.1029 54.9657 14.7778L57.1017 12.2695H59.2884L55.603 16.5346L55.4558 16.4813L53.1607 19.026ZM51.8389 21V12.2695H53.6293V14.6566L53.5959 16.8792L53.6293 17.7532V21H51.8389ZM57.2671 21L54.6785 17.0617L55.8066 15.7262L59.3797 21H57.2671ZM64.4041 21.1172C63.6306 21.1172 62.9381 20.9413 62.3267 20.5894C61.7153 20.2376 61.2331 19.7278 60.8801 19.06C60.5272 18.3922 60.3507 17.5857 60.3507 16.6406C60.3507 15.6895 60.5288 14.8795 60.8849 14.2107C61.241 13.5418 61.7253 13.0315 62.3378 12.6799C62.9503 12.3282 63.639 12.1523 64.4041 12.1523C64.9004 12.1523 65.3627 12.2215 65.7911 12.3599C66.2196 12.4983 66.5996 12.7005 66.931 12.9665C67.2625 13.2325 67.5343 13.5575 67.7465 13.9416C67.9586 14.3257 68.0974 14.7635 68.1629 15.2549H66.3535C66.3121 15.0153 66.2362 14.8023 66.1259 14.6158C66.0156 14.4293 65.8768 14.2706 65.7096 14.1396C65.5424 14.0087 65.3517 13.9095 65.1374 13.8419C64.9231 13.7743 64.6914 13.7405 64.4421 13.7405C63.9883 13.7405 63.59 13.8538 63.2472 14.0804C62.9044 14.307 62.6385 14.636 62.4493 15.0674C62.2602 15.4988 62.1656 16.0232 62.1656 16.6406C62.1656 17.2689 62.2617 17.7982 62.4538 18.2286C62.646 18.6589 62.9124 18.9832 63.2531 19.2015C63.5937 19.4199 63.9879 19.529 64.4357 19.529C64.685 19.529 64.9163 19.4948 65.1295 19.4263C65.3427 19.3578 65.534 19.2586 65.7033 19.1285C65.8726 18.9985 66.0135 18.8398 66.1259 18.6524C66.2383 18.465 66.3163 18.2524 66.3598 18.0146H68.1692C68.1203 18.4199 67.9998 18.8078 67.8077 19.1783C67.6156 19.5488 67.3586 19.8802 67.0366 20.1724C66.7146 20.4646 66.333 20.6951 65.8919 20.8639C65.4508 21.0328 64.9549 21.1172 64.4041 21.1172ZM69.2349 21L72.2213 12.2695H74.5609L77.6231 21H75.6349L74.2358 16.7886C74.0656 16.2447 73.8942 15.6491 73.7216 15.0018C73.5491 14.3545 73.367 13.6492 73.1754 12.8859H73.5635C73.3779 13.6528 73.2042 14.3617 73.0426 15.0126C72.8809 15.6634 72.7197 16.2554 72.5591 16.7886L71.2096 21H69.2349ZM71.1008 18.9739V17.5709H75.7573V18.9739H71.1008ZM79.2971 21V12.2695H81.0875V19.5157H84.852V21H79.2971Z" fill="#CBC3D7"/>
</svg>
