<svg width="126" height="26" viewBox="0 0 126 26" fill="none" xmlns="http://www.w3.org/2000/svg">
<g filter="url(#filter0_d_1_46)">
<path d="M9 3.66667V2H14V3.66667H9ZM10.6667 12.8333H12.3333V7.83333H10.6667V12.8333ZM11.5 19.5C10.4722 19.5 9.50347 19.3021 8.59375 18.9062C7.68403 18.5104 6.88889 17.9722 6.20833 17.2917C5.52778 16.6111 4.98958 15.816 4.59375 14.9062C4.19792 13.9965 4 13.0278 4 12C4 10.9722 4.19792 10.0035 4.59375 9.09375C4.98958 8.18403 5.52778 7.38889 6.20833 6.70833C6.88889 6.02778 7.68403 5.48958 8.59375 5.09375C9.50347 4.69792 10.4722 4.5 11.5 4.5C12.3611 4.5 13.1875 4.63889 13.9792 4.91667C14.7708 5.19444 15.5139 5.59722 16.2083 6.125L17.375 4.95833L18.5417 6.125L17.375 7.29167C17.9028 7.98611 18.3056 8.72917 18.5833 9.52083C18.8611 10.3125 19 11.1389 19 12C19 13.0278 18.8021 13.9965 18.4062 14.9062C18.0104 15.816 17.4722 16.6111 16.7917 17.2917C16.1111 17.9722 15.316 18.5104 14.4062 18.9062C13.4965 19.3021 12.5278 19.5 11.5 19.5Z" fill="#4AE176"/>
</g>
<path d="M27.2857 14.75L30.2721 6.01953H32.6117L35.6739 14.75H33.6857L32.2866 10.5386C32.1163 9.99466 31.945 9.39906 31.7724 8.75179C31.5999 8.10451 31.4178 7.39923 31.2261 6.63594H31.6143C31.4287 7.40282 31.255 8.11169 31.0933 8.76257C30.9317 9.41344 30.7705 10.0054 30.6099 10.5386L29.2604 14.75H27.2857ZM29.1516 12.7239V11.3209H33.808V12.7239H29.1516ZM40.6588 14.8672C39.8853 14.8672 39.1928 14.6913 38.5814 14.3394C37.97 13.9876 37.4878 13.4778 37.1348 12.81C36.7819 12.1422 36.6054 11.3357 36.6054 10.3906C36.6054 9.43953 36.7834 8.62955 37.1396 7.96068C37.4957 7.29181 37.98 6.78154 38.5925 6.42986C39.2049 6.07818 39.8937 5.90234 40.6588 5.90234C41.155 5.90234 41.6174 5.97154 42.0458 6.10994C42.4743 6.24834 42.8542 6.45053 43.1857 6.71651C43.5172 6.98249 43.789 7.30753 44.0012 7.69163C44.2133 8.07573 44.3521 8.51349 44.4176 9.0049H42.6082C42.5668 8.7653 42.4909 8.55225 42.3806 8.36577C42.2703 8.17929 42.1315 8.02058 41.9643 7.88964C41.7971 7.75871 41.6063 7.65945 41.3921 7.59188C41.1778 7.5243 40.9461 7.49051 40.6968 7.49051C40.2429 7.49051 39.8446 7.60381 39.5019 7.83041C39.1591 8.05701 38.8932 8.38601 38.704 8.81741C38.5149 9.24881 38.4203 9.77321 38.4203 10.3906C38.4203 11.0189 38.5164 11.5482 38.7085 11.9786C38.9007 12.4089 39.1671 12.7332 39.5077 12.9515C39.8484 13.1699 40.2426 13.279 40.6904 13.279C40.9397 13.279 41.171 13.2448 41.3842 13.1763C41.5974 13.1078 41.7886 13.0086 41.958 12.8785C42.1273 12.7485 42.2682 12.5898 42.3806 12.4024C42.493 12.215 42.571 12.0024 42.6145 11.7646H44.4239C44.375 12.1699 44.2545 12.5578 44.0624 12.9283C43.8703 13.2988 43.6132 13.6302 43.2913 13.9224C42.9693 14.2146 42.5877 14.4451 42.1466 14.6139C41.7055 14.7828 41.2096 14.8672 40.6588 14.8672ZM45.9734 7.50386V6.01953H53.1026V7.50386H50.4359V14.75H48.6455V7.50386H45.9734ZM56.7211 6.01953V14.75H54.9307V6.01953H56.7211ZM61.4557 14.75L58.3966 6.01953H60.3849L61.7813 10.2309C61.9479 10.7641 62.1172 11.3499 62.2891 11.9884C62.461 12.6269 62.6419 13.3242 62.8318 14.0803H62.4472C62.6329 13.3152 62.808 12.6156 62.9727 11.9817C63.1374 11.3477 63.3001 10.7641 63.4607 10.2309L64.8102 6.01953H66.7849L63.7926 14.75H61.4557ZM68.4588 14.75V6.01953H74.3044V7.50386H70.2492V9.61108H73.9951V11.0701H70.2492V13.2657H74.316V14.75H68.4588ZM79.7897 14.75V6.01953H82.5362L83.9493 10.0275C84.0085 10.2133 84.0761 10.4552 84.1522 10.7529C84.2282 11.0507 84.3056 11.3714 84.3842 11.7151C84.4628 12.0587 84.5363 12.3924 84.6048 12.7162C84.6733 13.0399 84.7298 13.3218 84.7743 13.5617H84.4238C84.47 13.3272 84.5269 13.0489 84.5943 12.7269C84.6618 12.405 84.7348 12.0717 84.8134 11.7272C84.892 11.3827 84.9692 11.0602 85.0451 10.7597C85.121 10.4592 85.1886 10.2151 85.2478 10.0275L86.6411 6.01953H89.3935V14.75H87.5985V10.6339C87.5985 10.4436 87.6016 10.2064 87.6077 9.92211C87.6139 9.63785 87.6215 9.33079 87.6305 9.00094C87.6395 8.67109 87.648 8.33839 87.656 8.00284C87.664 7.66729 87.6689 7.3522 87.6707 7.05759H87.7866C87.7109 7.38197 87.6276 7.71651 87.5369 8.0612C87.4462 8.40589 87.3553 8.74082 87.2642 9.06598C87.1731 9.39114 87.0864 9.68909 87.0041 9.95984C86.9218 10.2306 86.8511 10.4553 86.7922 10.6339L85.3473 14.75H83.8394L82.3716 10.6339C82.3127 10.4571 82.2424 10.2346 82.1608 9.96658C82.0792 9.69852 81.9918 9.40282 81.8987 9.07945C81.8055 8.75609 81.7126 8.42116 81.6199 8.07467C81.5272 7.72818 81.4383 7.38916 81.3533 7.05759H81.4936C81.4972 7.33963 81.503 7.64662 81.511 7.97858C81.5189 8.31054 81.527 8.64279 81.5351 8.97534C81.5432 9.30788 81.5508 9.61853 81.5579 9.90728C81.565 10.196 81.5685 10.4382 81.5685 10.6339V14.75H79.7897ZM93.3598 6.01953V14.75H91.5694V6.01953H93.3598ZM95.5385 14.75V6.01953H97.5345L100.291 10.4391C100.431 10.6659 100.574 10.9115 100.719 11.1761C100.865 11.4406 101.013 11.735 101.163 12.0591C101.313 12.3833 101.463 12.7487 101.614 13.1551H101.43C101.403 12.8298 101.379 12.4842 101.356 12.1185C101.333 11.7528 101.314 11.4015 101.299 11.0646C101.285 10.7276 101.278 10.443 101.278 10.2105V6.01953H103.106V14.75H101.105L98.6021 10.7432C98.4174 10.441 98.2466 10.1488 98.0896 9.86674C97.9326 9.58463 97.7693 9.27183 97.5997 8.92835C97.4301 8.58488 97.2278 8.17548 96.9926 7.70017H97.2198C97.2457 8.12111 97.2701 8.52572 97.2931 8.914C97.3161 9.30228 97.3346 9.65318 97.3486 9.9667C97.3626 10.2802 97.3696 10.5373 97.3696 10.7378V14.75H95.5385ZM108.488 14.877C107.79 14.877 107.181 14.7697 106.664 14.5549C106.146 14.3402 105.743 14.0223 105.453 13.6011C105.164 13.18 105.011 12.6599 104.992 12.0408H106.733C106.756 12.3352 106.843 12.5809 106.996 12.778C107.148 12.9751 107.352 13.1227 107.606 13.221C107.861 13.3192 108.148 13.3683 108.469 13.3683C108.788 13.3683 109.066 13.3218 109.303 13.2288C109.541 13.1357 109.725 13.0052 109.857 12.8373C109.989 12.6694 110.055 12.4754 110.055 12.2554C110.055 12.0543 109.996 11.8865 109.878 11.7518C109.76 11.6172 109.589 11.5017 109.365 11.4052C109.141 11.3088 108.87 11.2229 108.551 11.1476L107.591 10.9088C106.852 10.7286 106.273 10.4461 105.854 10.0613C105.435 9.67648 105.226 9.16654 105.226 8.53146C105.226 8.00552 105.368 7.54532 105.653 7.15087C105.937 6.75641 106.327 6.44971 106.821 6.23076C107.315 6.01182 107.878 5.90234 108.51 5.90234C109.156 5.90234 109.72 6.01287 110.2 6.23393C110.68 6.45498 111.055 6.76141 111.323 7.15321C111.592 7.54501 111.731 7.99642 111.74 8.50744H110.011C109.977 8.1576 109.827 7.88651 109.562 7.69417C109.296 7.50183 108.94 7.40566 108.494 7.40566C108.191 7.40566 107.932 7.44925 107.717 7.53644C107.503 7.62362 107.339 7.7436 107.228 7.89637C107.116 8.04914 107.06 8.22322 107.06 8.4186C107.06 8.63258 107.125 8.81019 107.255 8.95144C107.386 9.09269 107.557 9.20768 107.771 9.29643C107.984 9.38518 108.213 9.45885 108.458 9.51745L109.245 9.71022C109.613 9.79381 109.955 9.90612 110.272 10.0471C110.589 10.1882 110.866 10.3611 111.104 10.5659C111.342 10.7708 111.527 11.0134 111.659 11.2937C111.791 11.5741 111.857 11.8973 111.857 12.2635C111.857 12.7928 111.724 13.2536 111.457 13.6459C111.19 14.0382 110.805 14.3415 110.303 14.5557C109.801 14.7699 109.196 14.877 108.488 14.877Z" fill="#4AE176"/>
<defs>
<filter id="filter0_d_1_46" x="0" y="0" width="23" height="25.5" filterUnits="userSpaceOnUse" color-interpolation-filters="sRGB">
<feFlood flood-opacity="0" result="BackgroundImageFix"/>
<feColorMatrix in="SourceAlpha" type="matrix" values="0 0 0 0 0 0 0 0 0 0 0 0 0 0 0 0 0 0 127 0" result="hardAlpha"/>
<feOffset dy="2"/>
<feGaussianBlur stdDeviation="2"/>
<feComposite in2="hardAlpha" operator="out"/>
<feColorMatrix type="matrix" values="0 0 0 0 0 0 0 0 0 0 0 0 0 0 0 0 0 0 0.3 0"/>
<feBlend mode="normal" in2="BackgroundImageFix" result="effect1_dropShadow_1_46"/>
<feBlend mode="normal" in="SourceGraphic" in2="effect1_dropShadow_1_46" result="shape"/>
</filter>
</defs>
</svg>
