<svg width="80" height="80" viewBox="0 0 80 80" fill="none" xmlns="http://www.w3.org/2000/svg">
<rect x="12" y="2" width="56" height="56" rx="12" fill="#D0BCFF" fill-opacity="0.1"/>
<rect x="12.5" y="2.5" width="55" height="55" rx="11.5" stroke="#D0BCFF" stroke-opacity="0.2"/>
<g filter="url(#filter0_dd_1_320)">
<rect x="12" y="2" width="56" height="56" rx="12" fill="white" fill-opacity="0.01" shape-rendering="crispEdges"/>
</g>
<path d="M30 39V37C30.6333 37 31.1083 36.8333 31.425 36.5C31.7417 36.1667 32.3667 36 33.3 36C34.2333 36 34.875 36.1667 35.225 36.5C35.575 36.8333 36.05 37 36.65 37C37.25 37 37.725 36.8333 38.075 36.5C38.425 36.1667 39.0667 36 40 36C40.9333 36 41.575 36.1667 41.925 36.5C42.275 36.8333 42.75 37 43.35 37C43.95 37 44.425 36.8333 44.775 36.5C45.125 36.1667 45.7667 36 46.7 36C47.6333 36 48.2583 36.1667 48.575 36.5C48.8917 36.8333 49.3667 37 50 37V39C49.0167 39 48.3708 38.8333 48.0625 38.5C47.7542 38.1667 47.3 38 46.7 38C46.1 38 45.625 38.1667 45.275 38.5C44.925 38.8333 44.2833 39 43.35 39C42.4167 39 41.775 38.8333 41.425 38.5C41.075 38.1667 40.6 38 40 38C39.4 38 38.925 38.1667 38.575 38.5C38.225 38.8333 37.5833 39 36.65 39C35.7167 39 35.075 38.8333 34.725 38.5C34.375 38.1667 33.9 38 33.3 38C32.7 38 32.2458 38.1667 31.9375 38.5C31.6292 38.8333 30.9833 39 30 39ZM30 34.5V32.5C30.6333 32.5 31.1083 32.3333 31.425 32C31.7417 31.6667 32.3667 31.5 33.3 31.5C34.2333 31.5 34.8792 31.6667 35.2375 32C35.5958 32.3333 36.0667 32.5 36.65 32.5C37.25 32.5 37.725 32.3333 38.075 32C38.425 31.6667 39.0667 31.5 40 31.5C40.9333 31.5 41.575 31.6667 41.925 32C42.275 32.3333 42.75 32.5 43.35 32.5C43.95 32.5 44.425 32.3333 44.775 32C45.125 31.6667 45.7667 31.5 46.7 31.5C47.6333 31.5 48.2583 31.6667 48.575 32C48.8917 32.3333 49.3667 32.5 50 32.5V34.5C49.0167 34.5 48.3708 34.3333 48.0625 34C47.7542 33.6667 47.3 33.5 46.7 33.5C46.1 33.5 45.6375 33.6667 45.3125 34C44.9875 34.3333 44.3333 34.5 43.35 34.5C42.4 34.5 41.7542 34.3333 41.4125 34C41.0708 33.6667 40.6 33.5 40 33.5C39.3667 33.5 38.8958 33.6667 38.5875 34C38.2792 34.3333 37.6333 34.5 36.65 34.5C35.6667 34.5 35.0125 34.3333 34.6875 34C34.3625 33.6667 33.9 33.5 33.3 33.5C32.7 33.5 32.2458 33.6667 31.9375 34C31.6292 34.3333 30.9833 34.5 30 34.5ZM34.9 29.4L38.225 26.075L37.225 25.075C36.675 24.525 36.0917 24.125 35.475 23.875C34.8583 23.625 34.1 23.5 33.2 23.5V21C34.45 21 35.4833 21.1375 36.3 21.4125C37.1167 21.6875 37.9167 22.2167 38.7 23L45.1 29.4C44.8167 29.5833 44.5417 29.7292 44.275 29.8375C44.0083 29.9458 43.7 30 43.35 30C42.75 30 42.275 29.8333 41.925 29.5C41.575 29.1667 40.9333 29 40 29C39.0667 29 38.425 29.1667 38.075 29.5C37.725 29.8333 37.25 30 36.65 30C36.3 30 35.9917 29.9458 35.725 29.8375C35.4583 29.7292 35.1833 29.5833 34.9 29.4ZM44.7 21C45.4 21 45.9917 21.2458 46.475 21.7375C46.9583 22.2292 47.2 22.8167 47.2 23.5C47.2 24.2 46.9583 24.7917 46.475 25.275C45.9917 25.7583 45.4 26 44.7 26C44 26 43.4083 25.7583 42.925 25.275C42.4417 24.7917 42.2 24.2 42.2 23.5C42.2 22.8167 42.4417 22.2292 42.925 21.7375C43.4083 21.2458 44 21 44.7 21Z" fill="#D0BCFF"/>
<defs>
<filter id="filter0_dd_1_320" x="0" y="0" width="80" height="80" filterUnits="userSpaceOnUse" color-interpolation-filters="sRGB">
<feFlood flood-opacity="0" result="BackgroundImageFix"/>
<feColorMatrix in="SourceAlpha" type="matrix" values="0 0 0 0 0 0 0 0 0 0 0 0 0 0 0 0 0 0 127 0" result="hardAlpha"/>
<feMorphology radius="4" operator="erode" in="SourceAlpha" result="effect1_dropShadow_1_320"/>
<feOffset dy="4"/>
<feGaussianBlur stdDeviation="3"/>
<feComposite in2="hardAlpha" operator="out"/>
<feColorMatrix type="matrix" values="0 0 0 0 0 0 0 0 0 0 0 0 0 0 0 0 0 0 0.1 0"/>
<feBlend mode="normal" in2="BackgroundImageFix" result="effect1_dropShadow_1_320"/>
<feColorMatrix in="SourceAlpha" type="matrix" values="0 0 0 0 0 0 0 0 0 0 0 0 0 0 0 0 0 0 127 0" result="hardAlpha"/>
<feMorphology radius="3" operator="erode" in="SourceAlpha" result="effect2_dropShadow_1_320"/>
<feOffset dy="10"/>
<feGaussianBlur stdDeviation="7.5"/>
<feComposite in2="hardAlpha" operator="out"/>
<feColorMatrix type="matrix" values="0 0 0 0 0 0 0 0 0 0 0 0 0 0 0 0 0 0 0.1 0"/>
<feBlend mode="normal" in2="effect1_dropShadow_1_320" result="effect2_dropShadow_1_320"/>
<feBlend mode="normal" in="SourceGraphic" in2="effect2_dropShadow_1_320" result="shape"/>
</filter>
</defs>
</svg>
